# Blender v2.78 (sub 0) OBJ File: 'Buttons.blend'
# www.blender.org
mtllib Buttons.mtl
o Cube
v 1.000000 -0.109102 -1.000000
v 1.000000 -0.109102 1.000000
v -1.000000 -0.109102 1.000000
v -1.000000 -0.109102 -1.000000
v 1.000000 0.109102 -0.999999
v 0.999999 0.109102 1.000001
v -1.000000 0.109102 1.000000
v -1.000000 0.109102 -1.000000
v 0.333333 -0.109102 -1.000000
v -0.333333 -0.109102 -1.000000
v 0.333333 -0.109102 1.000000
v -0.333333 -0.109102 1.000000
v 0.333334 0.109102 -1.000000
v -0.333333 0.109102 -1.000000
v 0.333333 0.109102 1.000000
v -0.333334 0.109102 1.000000
v 1.000000 -0.109102 -0.500000
v 1.000000 -0.109102 0.000000
v 1.000000 -0.109102 0.500000
v -1.000000 -0.109102 0.500000
v -1.000000 -0.109102 -0.000000
v -1.000000 -0.109102 -0.500000
v 1.000000 0.109102 -0.499999
v 1.000000 0.109102 0.000001
v 1.000000 0.109102 0.500001
v -1.000000 0.109102 0.500000
v -1.000000 0.109102 -0.000000
v -1.000000 0.109102 -0.500000
v 0.333333 0.109102 -0.500000
v 0.333333 0.109102 0.000000
v 0.333333 0.109102 0.500000
v -0.333333 0.109102 -0.500000
v -0.333333 0.109102 0.000000
v -0.333334 0.109102 0.500000
v 0.333333 -0.109102 0.500000
v 0.333333 -0.109102 -0.000000
v 0.333333 -0.109102 -0.500000
v -0.333333 -0.109102 0.500000
v -0.333333 -0.109102 -0.000000
v -0.333333 -0.109102 -0.500000
v -0.431630 0.109102 0.573722
v -0.901704 0.109102 0.573722
v -0.901704 0.109102 0.926278
v -0.431630 0.109102 0.926278
v 0.901704 0.109102 0.573722
v 0.431629 0.109102 0.573722
v 0.431629 0.109102 0.926278
v 0.901703 0.109102 0.926278
v 0.235037 0.109102 0.573722
v -0.235038 0.109102 0.573722
v -0.235038 0.109102 0.926278
v 0.235037 0.109102 0.926278
v 0.235038 0.109102 -0.926278
v -0.235037 0.109102 -0.926278
v -0.235037 0.109102 -0.573722
v 0.235037 0.109102 -0.573722
v 0.235037 0.109102 -0.426278
v -0.235037 0.109102 -0.426278
v -0.235037 0.109102 -0.073722
v 0.235037 0.109102 -0.073722
v 0.235037 0.109102 0.073722
v -0.235037 0.109102 0.073722
v -0.235038 0.109102 0.426278
v 0.235037 0.109102 0.426278
v 0.901704 0.109102 -0.926277
v 0.431630 0.109102 -0.926278
v 0.431629 0.109102 -0.573722
v 0.901704 0.109102 -0.573722
v 0.901704 0.109102 -0.426277
v 0.431629 0.109102 -0.426278
v 0.431629 0.109102 -0.073722
v 0.901704 0.109102 -0.073722
v 0.901704 0.109102 0.073723
v 0.431629 0.109102 0.073722
v 0.431629 0.109102 0.426278
v 0.901704 0.109102 0.426278
v -0.431629 0.109102 -0.926278
v -0.901704 0.109102 -0.926278
v -0.901704 0.109102 -0.573722
v -0.431629 0.109102 -0.573722
v -0.431629 0.109102 -0.426278
v -0.901704 0.109102 -0.426278
v -0.901704 0.109102 -0.073722
v -0.431629 0.109102 -0.073722
v -0.431630 0.109102 0.073722
v -0.901704 0.109102 0.073722
v -0.901704 0.109102 0.426278
v -0.431630 0.109102 0.426278
v -0.863679 0.298487 0.602240
v -0.469655 0.298487 0.602241
v -0.863679 0.298487 0.897759
v -0.469655 0.298487 0.897759
v 0.469654 0.298487 0.602241
v 0.863679 0.298487 0.602241
v 0.469654 0.298487 0.897760
v 0.863678 0.298487 0.897760
v -0.197013 0.298487 0.602241
v 0.197012 0.298487 0.602241
v -0.197013 0.298487 0.897759
v 0.197012 0.298487 0.897759
v -0.197012 0.298487 -0.897759
v 0.197013 0.298487 -0.897759
v -0.197012 0.298487 -0.602241
v 0.197013 0.298487 -0.602240
v -0.197012 0.298487 -0.397759
v 0.197012 0.298487 -0.397759
v -0.197013 0.298487 -0.102241
v 0.197012 0.298487 -0.102240
v -0.197013 0.298487 0.102241
v 0.197012 0.298487 0.102241
v -0.197013 0.298487 0.397759
v 0.197012 0.298487 0.397759
v 0.469655 0.298487 -0.897759
v 0.863679 0.298487 -0.897759
v 0.469654 0.298487 -0.602240
v 0.863679 0.298487 -0.602240
v 0.469654 0.298487 -0.397759
v 0.863679 0.298487 -0.397759
v 0.469654 0.298487 -0.102240
v 0.863679 0.298487 -0.102240
v 0.469654 0.298487 0.102241
v 0.863679 0.298487 0.102241
v 0.469654 0.298487 0.397760
v 0.863679 0.298487 0.397760
v -0.863679 0.298487 -0.897759
v -0.469654 0.298487 -0.897759
v -0.863679 0.298487 -0.602241
v -0.469654 0.298487 -0.602241
v -0.863679 0.298487 -0.397759
v -0.469654 0.298487 -0.397759
v -0.863679 0.298487 -0.102241
v -0.469654 0.298487 -0.102241
v -0.863679 0.298487 0.102241
v -0.469654 0.298487 0.102241
v -0.863679 0.298487 0.397759
v -0.469654 0.298487 0.397759
vn 0.0000 -1.0000 -0.0000
vn 1.0000 0.0000 0.0000
vn -0.0000 0.0000 1.0000
vn -1.0000 -0.0000 -0.0000
vn 0.0000 0.0000 -1.0000
vn 0.0000 1.0000 0.0000
vn -0.0000 0.1489 0.9889
vn -0.9804 0.1969 -0.0000
vn 0.9804 0.1969 0.0000
vn 0.0000 0.1489 -0.9889
usemtl Material
s off
f 38//1 12//1 3//1 20//1
f 19//2 25//2 6//2 2//2
f 12//3 16//3 7//3 3//3
f 22//4 28//4 8//4 4//4
f 14//5 10//5 4//5 8//5
f 5//5 1//5 9//5 13//5
f 13//5 9//5 10//5 14//5
f 2//3 6//3 15//3 11//3
f 11//3 15//3 16//3 12//3
f 19//1 2//1 11//1 35//1
f 35//1 11//1 12//1 38//1
f 9//1 37//1 40//1 10//1
f 37//1 36//1 39//1 40//1
f 36//1 35//1 38//1 39//1
f 1//1 17//1 37//1 9//1
f 17//1 18//1 36//1 37//1
f 18//1 19//1 35//1 36//1
f 3//4 7//4 26//4 20//4
f 20//4 26//4 27//4 21//4
f 21//4 27//4 28//4 22//4
f 1//2 5//2 23//2 17//2
f 17//2 23//2 24//2 18//2
f 18//2 24//2 25//2 19//2
f 10//1 40//1 22//1 4//1
f 40//1 39//1 21//1 22//1
f 39//1 38//1 20//1 21//1
f 26//6 42//6 41//6 34//6
f 7//6 43//6 42//6 26//6
f 16//6 44//6 43//6 7//6
f 34//6 41//6 44//6 16//6
f 31//6 46//6 45//6 25//6
f 15//6 47//6 46//6 31//6
f 6//6 48//6 47//6 15//6
f 25//6 45//6 48//6 6//6
f 34//6 50//6 49//6 31//6
f 16//6 51//6 50//6 34//6
f 15//6 52//6 51//6 16//6
f 31//6 49//6 52//6 15//6
f 14//6 54//6 53//6 13//6
f 32//6 55//6 54//6 14//6
f 29//6 56//6 55//6 32//6
f 13//6 53//6 56//6 29//6
f 32//6 58//6 57//6 29//6
f 33//6 59//6 58//6 32//6
f 30//6 60//6 59//6 33//6
f 29//6 57//6 60//6 30//6
f 33//6 62//6 61//6 30//6
f 34//6 63//6 62//6 33//6
f 31//6 64//6 63//6 34//6
f 30//6 61//6 64//6 31//6
f 13//6 66//6 65//6 5//6
f 29//6 67//6 66//6 13//6
f 23//6 68//6 67//6 29//6
f 5//6 65//6 68//6 23//6
f 29//6 70//6 69//6 23//6
f 30//6 71//6 70//6 29//6
f 24//6 72//6 71//6 30//6
f 23//6 69//6 72//6 24//6
f 30//6 74//6 73//6 24//6
f 31//6 75//6 74//6 30//6
f 25//6 76//6 75//6 31//6
f 24//6 73//6 76//6 25//6
f 8//6 78//6 77//6 14//6
f 28//6 79//6 78//6 8//6
f 32//6 80//6 79//6 28//6
f 14//6 77//6 80//6 32//6
f 28//6 82//6 81//6 32//6
f 27//6 83//6 82//6 28//6
f 33//6 84//6 83//6 27//6
f 32//6 81//6 84//6 33//6
f 27//6 86//6 85//6 33//6
f 26//6 87//6 86//6 27//6
f 34//6 88//6 87//6 26//6
f 33//6 85//6 88//6 34//6
usemtl Material.001
f 134//6 133//6 135//6 136//6
f 130//6 129//6 131//6 132//6
f 126//6 125//6 127//6 128//6
f 122//6 121//6 123//6 124//6
f 118//6 117//6 119//6 120//6
f 114//6 113//6 115//6 116//6
f 110//6 109//6 111//6 112//6
f 106//6 105//6 107//6 108//6
f 102//6 101//6 103//6 104//6
f 98//6 97//6 99//6 100//6
f 94//6 93//6 95//6 96//6
f 90//6 89//6 91//6 92//6
f 59//7 60//7 108//7 107//7
f 79//7 80//7 128//7 127//7
f 58//8 59//8 107//8 105//8
f 78//8 79//8 127//8 125//8
f 52//9 49//9 98//9 100//9
f 72//9 69//9 118//9 120//9
f 57//10 58//10 105//10 106//10
f 77//10 78//10 125//10 126//10
f 51//7 52//7 100//7 99//7
f 71//7 72//7 120//7 119//7
f 50//8 51//8 99//8 97//8
f 70//8 71//8 119//8 117//8
f 85//10 86//10 133//10 134//10
f 65//10 66//10 113//10 114//10
f 80//9 77//9 126//9 128//9
f 45//10 46//10 93//10 94//10
f 60//9 57//9 106//9 108//9
f 86//8 87//8 135//8 133//8
f 66//8 67//8 115//8 113//8
f 46//8 47//8 95//8 93//8
f 87//7 88//7 136//7 135//7
f 67//7 68//7 116//7 115//7
f 47//7 48//7 96//7 95//7
f 73//10 74//10 121//10 122//10
f 88//9 85//9 134//9 136//9
f 53//10 54//10 101//10 102//10
f 68//9 65//9 114//9 116//9
f 48//9 45//9 94//9 96//9
f 74//8 75//8 123//8 121//8
f 54//8 55//8 103//8 101//8
f 75//7 76//7 124//7 123//7
f 55//7 56//7 104//7 103//7
f 81//10 82//10 129//10 130//10
f 61//10 62//10 109//10 110//10
f 76//9 73//9 122//9 124//9
f 41//10 42//10 89//10 90//10
f 56//9 53//9 102//9 104//9
f 82//8 83//8 131//8 129//8
f 62//8 63//8 111//8 109//8
f 42//8 43//8 91//8 89//8
f 83//7 84//7 132//7 131//7
f 63//7 64//7 112//7 111//7
f 43//7 44//7 92//7 91//7
f 69//10 70//10 117//10 118//10
f 84//9 81//9 130//9 132//9
f 49//10 50//10 97//10 98//10
f 64//9 61//9 110//9 112//9
f 44//9 41//9 90//9 92//9
