# Blender v2.78 (sub 0) OBJ File: 'Radio.blend'
# www.blender.org
mtllib Radio.mtl
o Cube_Cube.001
v -3.198169 -0.022294 0.076299
v -3.198169 0.077706 0.084776
v -3.298169 0.077706 0.076299
v -3.198169 0.006996 0.082293
v -3.255903 0.019971 0.081193
v -3.268879 0.077706 0.082293
v -3.268879 0.006996 0.076299
v -3.198169 1.877706 0.084776
v -3.198169 1.977706 0.076299
v -3.298169 1.877706 0.076299
v -3.198169 1.948417 0.082293
v -3.255903 1.935441 0.081193
v -3.268879 1.948417 0.076299
v -3.268879 1.877706 0.082293
v -3.198169 -0.022294 -0.076299
v -3.298169 0.077706 -0.076299
v -3.198169 0.077706 -0.084776
v -3.268879 0.006996 -0.076299
v -3.255903 0.019971 -0.081193
v -3.268879 0.077706 -0.082293
v -3.198169 0.006996 -0.082293
v -3.198169 1.977706 -0.076299
v -3.198169 1.877706 -0.084776
v -3.298169 1.877706 -0.076299
v -3.198169 1.948417 -0.082293
v -3.255903 1.935441 -0.081193
v -3.268879 1.877706 -0.082293
v -3.268879 1.948417 -0.076299
v 3.154989 -0.022294 0.076299
v 3.254989 0.077706 0.076299
v 3.154989 0.077706 0.084776
v 3.225700 0.006996 0.076299
v 3.212724 0.019971 0.081193
v 3.225700 0.077706 0.082293
v 3.154989 0.006996 0.082293
v 3.154989 1.977706 0.076299
v 3.154989 1.877706 0.084776
v 3.254989 1.877706 0.076299
v 3.154989 1.948417 0.082293
v 3.212724 1.935441 0.081193
v 3.225700 1.877706 0.082293
v 3.225700 1.948417 0.076299
v 3.154989 -0.022294 -0.076299
v 3.154989 0.077706 -0.084776
v 3.254989 0.077706 -0.076299
v 3.154989 0.006996 -0.082293
v 3.212724 0.019971 -0.081193
v 3.225700 0.077706 -0.082293
v 3.225700 0.006996 -0.076299
v 3.154989 1.977706 -0.076299
v 3.254989 1.877706 -0.076299
v 3.154989 1.877706 -0.084776
v 3.225700 1.948417 -0.076299
v 3.212724 1.935441 -0.081193
v 3.225700 1.877706 -0.082293
v 3.154989 1.948417 -0.082293
v -3.198169 0.977706 0.084776
v -3.268879 0.977706 0.082293
v -3.298169 0.977706 0.076299
v -3.198169 0.977706 -0.084776
v -3.268879 0.977706 -0.082293
v -3.298169 0.977706 -0.076299
v 3.254989 0.977706 -0.076299
v 3.225700 0.977706 -0.082293
v 3.154989 0.977706 -0.084776
v 3.154989 0.977706 0.084776
v 3.225700 0.977706 0.082293
v 3.254989 0.977706 0.076299
v -3.198169 0.977706 -0.084776
v -3.198169 0.077706 -0.084776
v 3.154989 0.077706 -0.084776
v 3.154989 0.977706 -0.084776
v -0.021590 -0.022294 -0.076299
v -0.021590 0.006996 -0.082293
v -0.021590 0.077706 -0.084776
v -0.021590 1.977706 -0.076299
v -0.021590 1.948417 -0.082293
v -0.021590 1.877706 -0.084776
v -0.021590 -0.022294 0.076299
v -0.021590 0.006996 0.082293
v -0.021590 0.077706 0.084776
v -0.021590 1.977706 0.076299
v -0.021590 1.948417 0.082293
v -0.021590 1.877706 0.084776
v -0.021590 0.977706 -0.084776
v -0.021590 0.077706 -0.084776
v -0.021590 0.977706 -0.084776
v -0.021590 1.783465 -0.084776
v -1.641928 1.783465 -0.084776
v 1.598749 1.324385 -0.084776
v 1.598749 1.783465 -0.084776
v -1.641928 1.324385 -0.084776
v -0.021590 1.324385 -0.084776
v -0.021590 1.783465 0.031009
v -1.641928 1.783465 0.031009
v 1.598749 1.324385 0.031009
v 1.598749 1.783465 0.031009
v -1.641928 1.324385 0.031009
v -0.021590 1.324385 0.031009
v -2.360351 0.691964 -0.084776
v -2.360351 0.363449 -0.084776
v -0.859407 0.363449 -0.084776
v -0.859407 0.691964 -0.084776
v -2.360351 0.691964 -0.046606
v -2.360351 0.363449 -0.046606
v -0.859407 0.363449 -0.046606
v -0.859407 0.691964 -0.046606
v -3.198169 0.977706 3.852073
v -3.198169 1.877706 3.852073
v 3.154989 0.977706 3.852073
v 3.154989 0.077706 3.852073
v -0.021590 0.077706 3.852073
v -3.198169 0.077706 3.852073
v -0.021590 1.877706 3.852073
v 3.154989 1.877706 3.852073
v -0.021590 0.977706 3.852073
v 0.499195 0.225257 -0.084776
v 2.634204 0.225257 -0.084776
v 2.634204 0.830155 -0.084776
v 0.499195 0.830155 -0.084776
v 0.560614 0.242658 -0.321362
v 2.572785 0.242658 -0.321362
v 2.572785 0.812754 -0.202007
v 0.560614 0.812754 -0.202007
v 0.701695 0.282630 -0.312994
v 2.431705 0.282630 -0.312994
v 2.431705 0.772783 -0.210376
v 0.701695 0.772783 -0.210376
v 0.701695 0.274960 -0.276359
v 2.431705 0.274960 -0.276359
v 2.431705 0.765113 -0.173741
v 0.701695 0.765113 -0.173741
vn 1.0000 0.0000 0.0000
vn 0.0000 1.0000 0.0000
vn -1.0000 0.0000 0.0000
vn 0.0000 0.0000 -1.0000
vn -0.0823 -0.2249 0.9709
vn -0.0310 -0.0310 0.9990
vn -0.2249 -0.0823 0.9709
vn -0.0310 0.0310 0.9990
vn -0.0823 0.2249 0.9709
vn -0.2249 0.0823 0.9709
vn -0.0823 -0.2249 -0.9709
vn -0.2249 -0.0823 -0.9709
vn -0.0310 -0.0310 -0.9990
vn -0.0823 0.2249 -0.9709
vn -0.0310 0.0310 -0.9990
vn -0.2249 0.0823 -0.9709
vn 0.0823 -0.2249 0.9709
vn 0.2249 -0.0823 0.9709
vn 0.0310 -0.0310 0.9990
vn 0.0823 0.2249 0.9709
vn 0.0310 0.0310 0.9990
vn 0.2249 0.0823 0.9709
vn 0.0823 -0.2249 -0.9709
vn 0.0310 -0.0310 -0.9990
vn 0.2249 -0.0823 -0.9709
vn 0.0823 0.2249 -0.9709
vn 0.2249 0.0823 -0.9709
vn 0.0310 0.0310 -0.9990
vn -0.3827 -0.9239 0.0000
vn -0.9239 -0.3827 0.0000
vn -0.0351 0.0000 0.9994
vn -0.2005 0.0000 0.9797
vn -0.3827 0.9239 0.0000
vn -0.9239 0.3827 0.0000
vn -0.0351 0.0000 -0.9994
vn -0.2005 0.0000 -0.9797
vn 0.0000 -0.2005 -0.9797
vn 0.0000 -0.0351 -0.9994
vn 0.0000 0.2005 -0.9797
vn 0.0000 0.0351 -0.9994
vn 0.2005 0.0000 -0.9797
vn 0.0351 0.0000 -0.9994
vn 0.3827 -0.9239 0.0000
vn 0.9239 -0.3827 0.0000
vn 0.3827 0.9239 0.0000
vn 0.9239 0.3827 0.0000
vn 0.0351 0.0000 0.9994
vn 0.2005 0.0000 0.9797
vn 0.0000 -0.2005 0.9797
vn 0.0000 -0.0351 0.9994
vn 0.0000 0.2005 0.9797
vn 0.0000 0.0351 0.9994
vn 0.0000 -1.0000 0.0000
vn 0.0000 0.0000 1.0000
vn 0.0000 -0.9973 -0.0734
vn 0.0000 0.2049 -0.9788
vn -0.9442 0.0333 -0.3278
vn 0.9442 0.0333 -0.3278
vn 0.0000 0.9892 -0.1468
vn 0.0000 -0.9788 -0.2049
vn 0.0000 0.9788 0.2049
usemtl Material.001
s off
f 63//1 51//1 38//1 68//1
f 76//2 22//2 9//2 82//2
f 59//3 10//3 24//3 62//3
f 78//4 52//4 91//4 88//4
f 1//5 4//5 5//5 7//5
f 2//6 6//6 5//6 4//6
f 3//7 7//7 5//7 6//7
f 8//8 11//8 12//8 14//8
f 9//9 13//9 12//9 11//9
f 10//10 14//10 12//10 13//10
f 15//11 18//11 19//11 21//11
f 16//12 20//12 19//12 18//12
f 17//13 21//13 19//13 20//13
f 22//14 25//14 26//14 28//14
f 23//15 27//15 26//15 25//15
f 24//16 28//16 26//16 27//16
f 29//17 32//17 33//17 35//17
f 30//18 34//18 33//18 32//18
f 31//19 35//19 33//19 34//19
f 36//20 39//20 40//20 42//20
f 37//21 41//21 40//21 39//21
f 38//22 42//22 40//22 41//22
f 43//23 46//23 47//23 49//23
f 44//24 48//24 47//24 46//24
f 45//25 49//25 47//25 48//25
f 50//26 53//26 54//26 56//26
f 51//27 55//27 54//27 53//27
f 52//28 56//28 54//28 55//28
f 15//29 1//29 7//29 18//29
f 18//30 7//30 3//30 16//30
f 57//31 8//31 14//31 58//31
f 58//32 14//32 10//32 59//32
f 9//33 22//33 28//33 13//33
f 13//34 28//34 24//34 10//34
f 60//35 17//35 20//35 61//35
f 61//36 20//36 16//36 62//36
f 73//37 15//37 21//37 74//37
f 74//38 21//38 17//38 75//38
f 76//39 50//39 56//39 77//39
f 77//40 56//40 52//40 78//40
f 63//41 45//41 48//41 64//41
f 64//42 48//42 44//42 65//42
f 29//43 43//43 49//43 32//43
f 32//44 49//44 45//44 30//44
f 50//45 36//45 42//45 53//45
f 53//46 42//46 38//46 51//46
f 66//47 31//47 34//47 67//47
f 67//48 34//48 30//48 68//48
f 79//49 29//49 35//49 80//49
f 80//50 35//50 31//50 81//50
f 82//51 9//51 11//51 83//51
f 83//52 11//52 8//52 84//52
f 73//53 43//53 29//53 79//53
f 41//48 67//48 68//48 38//48
f 37//47 66//47 67//47 41//47
f 55//42 64//42 65//42 52//42
f 51//41 63//41 64//41 55//41
f 27//36 61//36 62//36 24//36
f 23//35 60//35 61//35 27//35
f 6//32 58//32 59//32 3//32
f 2//31 57//31 58//31 6//31
f 65//54 44//54 71//54 72//54
f 3//3 59//3 62//3 16//3
f 45//1 63//1 68//1 30//1
f 86//4 87//4 120//4 117//4
f 17//54 60//54 69//54 70//54
f 75//54 17//54 70//54 86//54
f 85//54 65//54 72//54 87//54
f 60//54 85//54 87//54 69//54
f 44//54 75//54 86//54 71//54
f 87//4 86//4 102//4 103//4
f 15//53 73//53 79//53 1//53
f 39//52 83//52 84//52 37//52
f 36//51 82//51 83//51 39//51
f 4//50 80//50 81//50 2//50
f 1//49 79//49 80//49 4//49
f 25//40 77//40 78//40 23//40
f 22//39 76//39 77//39 25//39
f 46//38 74//38 75//38 44//38
f 43//37 73//37 74//37 46//37
f 52//4 65//4 90//4 91//4
f 50//2 76//2 82//2 36//2
f 92//1 89//1 95//1 98//1
f 88//53 91//53 97//53 94//53
f 85//4 60//4 92//4 93//4
f 65//4 85//4 93//4 90//4
f 23//4 78//4 88//4 89//4
f 60//4 23//4 89//4 92//4
f 89//53 88//53 94//53 95//53
f 93//2 92//2 98//2 99//2
f 90//2 93//2 99//2 96//2
f 91//3 90//3 96//3 97//3
f 100//53 103//53 107//53 104//53
f 70//4 69//4 100//4 101//4
f 86//4 70//4 101//4 102//4
f 69//4 87//4 103//4 100//4
f 101//1 100//1 104//1 105//1
f 103//3 102//3 106//3 107//3
f 102//2 101//2 105//2 106//2
f 118//55 117//55 121//55 122//55
f 72//4 71//4 118//4 119//4
f 87//4 72//4 119//4 120//4
f 71//4 86//4 117//4 118//4
f 121//56 124//56 128//56 125//56
f 117//57 120//57 124//57 121//57
f 119//58 118//58 122//58 123//58
f 120//59 119//59 123//59 124//59
f 128//60 127//60 131//60 132//60
f 123//56 122//56 126//56 127//56
f 124//56 123//56 127//56 128//56
f 122//56 121//56 125//56 126//56
f 126//61 125//61 129//61 130//61
f 125//1 128//1 132//1 129//1
f 127//3 126//3 130//3 131//3
usemtl Material.002
f 99//4 94//4 97//4 96//4
f 98//4 95//4 94//4 99//4
f 129//56 132//56 131//56 130//56
usemtl Material.003
f 105//4 104//4 107//4 106//4
usemtl Material.004
f 66//1 37//1 115//1 110//1
f 8//3 57//3 108//3 109//3
f 57//3 2//3 113//3 108//3
f 31//1 66//1 110//1 111//1
f 116//54 114//54 109//54 108//54
f 112//54 116//54 108//54 113//54
f 111//54 110//54 116//54 112//54
f 110//54 115//54 114//54 116//54
f 81//53 31//53 111//53 112//53
f 2//53 81//53 112//53 113//53
f 84//2 8//2 109//2 114//2
f 37//2 84//2 114//2 115//2
